<svg xmlns="http://www.w3.org/2000/svg" viewBox="0 0 40 40" fill="none">
  <defs>
    <linearGradient id="fb" x1="20" y1="11" x2="20" y2="37" gradientUnits="userSpaceOnUse">
      <stop stop-color="#EF6A5F" />
      <stop offset="0.45" stop-color="#D52B1E" />
      <stop offset="1" stop-color="#9B1810" />
    </linearGradient>
    <linearGradient id="fs" x1="20" y1="14.5" x2="20" y2="22" gradientUnits="userSpaceOnUse">
      <stop stop-color="#FFFFFF" stop-opacity="0.55" />
      <stop offset="0.4" stop-color="#FFFFFF" stop-opacity="0" />
    </linearGradient>
  </defs>
  <line x1="13.2" y1="11.8" x2="9" y2="3.2" stroke="#7F0D0A" stroke-width="2.8" stroke-linecap="round" opacity="0.4" />
  <line x1="13" y1="11.8" x2="9" y2="3.5" stroke="#D52B1E" stroke-width="2" stroke-linecap="round" />
  <circle cx="9" cy="3.5" r="2.5" fill="#D52B1E" stroke="#8B1510" stroke-width="0.45" />
  <ellipse cx="8.35" cy="2.85" rx="1.05" ry="0.7" fill="rgba(255,255,255,0.42)" />
  <line x1="26.8" y1="11.8" x2="31" y2="3.2" stroke="#7F0D0A" stroke-width="2.8" stroke-linecap="round" opacity="0.4" />
  <line x1="27" y1="11.8" x2="31" y2="3.5" stroke="#D52B1E" stroke-width="2" stroke-linecap="round" />
  <circle cx="31" cy="3.5" r="2.5" fill="#D52B1E" stroke="#8B1510" stroke-width="0.45" />
  <ellipse cx="30.35" cy="2.85" rx="1.05" ry="0.7" fill="rgba(255,255,255,0.42)" />
  <rect x="5" y="12" width="30" height="24" rx="4.75" fill="url(#fb)" />
  <rect x="5.5" y="12.5" width="29" height="23" rx="4.25" fill="none" stroke="rgba(255,255,255,0.2)" stroke-width="0.65" />
  <rect x="5" y="12" width="30" height="24" rx="4.75" fill="none" stroke="rgba(0,0,0,0.1)" stroke-width="0.8" />
  <rect x="8.25" y="14.75" width="23.5" height="15.5" rx="2.35" fill="#FFFFFF" />
  <rect x="8.25" y="14.75" width="23.5" height="15.5" rx="2.35" fill="url(#fs)" />
  <rect x="8.25" y="14.75" width="23.5" height="15.5" rx="2.35" stroke="#E4E4E8" stroke-width="0.9" />
  <rect x="8.25" y="14.75" width="23.5" height="15.5" rx="2.35" stroke="rgba(255,255,255,0.85)" stroke-width="0.35" opacity="0.9" />
  <circle cx="20" cy="22.5" r="6.2" fill="#FEF2F2" stroke="#FBC8D0" stroke-width="0.55" />
  <path d="M18.1 19.85 L23.95 22.5 L18.1 25.15 Z" fill="#D52B1E" stroke="#B71C1C" stroke-width="0.35" stroke-linejoin="round" />
</svg>
